<svg width="108" height="20" viewBox="0 0 108 20" fill="none"
    xmlns="http://www.w3.org/2000/svg">
    <g clip-path="url(#clip0_44_16312)">
        <path fill-rule="evenodd" clip-rule="evenodd" d="M9.16664 2.65832C9.22421 2.47578 9.33846 2.31635 9.49281 2.20318C9.64717 2.09001 9.83358 2.02899 10.025 2.02899C10.2164 2.02899 10.4028 2.09001 10.5571 2.20318C10.7115 2.31635 10.8257 2.47578 10.8833 2.65832L12.4333 7.42498H17.4333C17.6315 7.41749 17.8268 7.4751 17.9892 7.58902C18.1516 7.70293 18.2723 7.86689 18.3327 8.05583C18.3932 8.24478 18.3902 8.44832 18.324 8.63536C18.2579 8.82241 18.1324 8.98266 17.9666 9.09165L13.9083 12.0333L15.4583 16.8083C15.5196 16.9902 15.5212 17.1869 15.4627 17.3698C15.4043 17.5526 15.2889 17.7119 15.1335 17.8246C14.9781 17.9372 14.7907 17.9972 14.5988 17.9957C14.4068 17.9943 14.2204 17.9316 14.0666 17.8167L9.99998 14.8417L5.94164 17.7917C5.7879 17.9066 5.60145 17.9693 5.40951 17.9707C5.21758 17.9721 5.03022 17.9122 4.87479 17.7996C4.71936 17.6869 4.604 17.5276 4.54557 17.3448C4.48713 17.1619 4.48868 16.9652 4.54998 16.7833L6.09998 12.0083L2.04164 9.06665C1.87588 8.95766 1.75035 8.79741 1.68424 8.61036C1.61813 8.42332 1.61508 8.21978 1.67554 8.03083C1.736 7.84189 1.85666 7.67793 2.01907 7.56402C2.18149 7.4501 2.37673 7.39249 2.57498 7.39998H7.57498L9.16664 2.65832Z" fill="#FBAD39"/>
        <path fill-rule="evenodd" clip-rule="evenodd" d="M31.1666 2.65832C31.2242 2.47578 31.3385 2.31635 31.4928 2.20318C31.6472 2.09001 31.8336 2.02899 32.025 2.02899C32.2164 2.02899 32.4028 2.09001 32.5571 2.20318C32.7115 2.31635 32.8257 2.47578 32.8833 2.65832L34.4333 7.42498H39.4333C39.6315 7.41749 39.8268 7.4751 39.9892 7.58902C40.1516 7.70293 40.2723 7.86689 40.3327 8.05583C40.3932 8.24478 40.3902 8.44832 40.324 8.63536C40.2579 8.82241 40.1324 8.98266 39.9666 9.09165L35.9083 12.0333L37.4583 16.8083C37.5196 16.9902 37.5212 17.1869 37.4627 17.3698C37.4043 17.5526 37.2889 17.7119 37.1335 17.8246C36.9781 17.9372 36.7907 17.9972 36.5988 17.9957C36.4068 17.9943 36.2204 17.9316 36.0666 17.8167L32 14.8417L27.9416 17.7917C27.7879 17.9066 27.6014 17.9693 27.4095 17.9707C27.2176 17.9721 27.0302 17.9122 26.8748 17.7996C26.7194 17.6869 26.604 17.5276 26.5456 17.3448C26.4871 17.1619 26.4887 16.9652 26.55 16.7833L28.1 12.0083L24.0416 9.06665C23.8759 8.95766 23.7504 8.79741 23.6842 8.61036C23.6181 8.42332 23.6151 8.21978 23.6755 8.03083C23.736 7.84189 23.8567 7.67793 24.0191 7.56402C24.1815 7.4501 24.3767 7.39249 24.575 7.39998H29.575L31.1666 2.65832Z" fill="#FBAD39"/>
        <path fill-rule="evenodd" clip-rule="evenodd" d="M53.1666 2.65832C53.2242 2.47578 53.3385 2.31635 53.4928 2.20318C53.6472 2.09001 53.8336 2.02899 54.025 2.02899C54.2164 2.02899 54.4028 2.09001 54.5571 2.20318C54.7115 2.31635 54.8257 2.47578 54.8833 2.65832L56.4333 7.42498H61.4333C61.6315 7.41749 61.8268 7.4751 61.9892 7.58902C62.1516 7.70293 62.2723 7.86689 62.3327 8.05583C62.3932 8.24478 62.3902 8.44832 62.324 8.63536C62.2579 8.82241 62.1324 8.98266 61.9666 9.09165L57.9083 12.0333L59.4583 16.8083C59.5196 16.9902 59.5212 17.1869 59.4627 17.3698C59.4043 17.5526 59.2889 17.7119 59.1335 17.8246C58.9781 17.9372 58.7907 17.9972 58.5988 17.9957C58.4068 17.9943 58.2204 17.9316 58.0666 17.8167L54 14.8417L49.9416 17.7917C49.7879 17.9066 49.6014 17.9693 49.4095 17.9707C49.2176 17.9721 49.0302 17.9122 48.8748 17.7996C48.7194 17.6869 48.604 17.5276 48.5456 17.3448C48.4871 17.1619 48.4887 16.9652 48.55 16.7833L50.1 12.0083L46.0416 9.06665C45.8759 8.95766 45.7504 8.79741 45.6842 8.61036C45.6181 8.42332 45.6151 8.21978 45.6755 8.03083C45.736 7.84189 45.8567 7.67793 46.0191 7.56402C46.1815 7.4501 46.3767 7.39249 46.575 7.39998H51.575L53.1666 2.65832Z" fill="#FBAD39"/>
        <path fill-rule="evenodd" clip-rule="evenodd" d="M75.1666 2.65832C75.2242 2.47578 75.3385 2.31635 75.4928 2.20318C75.6472 2.09001 75.8336 2.02899 76.025 2.02899C76.2164 2.02899 76.4028 2.09001 76.5571 2.20318C76.7115 2.31635 76.8257 2.47578 76.8833 2.65832L78.4333 7.42498H83.4333C83.6315 7.41749 83.8268 7.4751 83.9892 7.58902C84.1516 7.70293 84.2723 7.86689 84.3327 8.05583C84.3932 8.24478 84.3902 8.44832 84.324 8.63536C84.2579 8.82241 84.1324 8.98266 83.9666 9.09165L79.9083 12.0333L81.4583 16.8083C81.5196 16.9902 81.5212 17.1869 81.4627 17.3698C81.4043 17.5526 81.2889 17.7119 81.1335 17.8246C80.9781 17.9372 80.7907 17.9972 80.5988 17.9957C80.4068 17.9943 80.2204 17.9316 80.0666 17.8167L76 14.8417L71.9416 17.7917C71.7879 17.9066 71.6014 17.9693 71.4095 17.9707C71.2176 17.9721 71.0302 17.9122 70.8748 17.7996C70.7194 17.6869 70.604 17.5276 70.5456 17.3448C70.4871 17.1619 70.4887 16.9652 70.55 16.7833L72.1 12.0083L68.0416 9.06665C67.8759 8.95766 67.7504 8.79741 67.6842 8.61036C67.6181 8.42332 67.6151 8.21978 67.6755 8.03083C67.736 7.84189 67.8567 7.67793 68.0191 7.56402C68.1815 7.4501 68.3767 7.39249 68.575 7.39998H73.575L75.1666 2.65832Z" fill="#FBAD39"/>
        <path fill-rule="evenodd" clip-rule="evenodd" d="M97.1666 2.65832C97.2242 2.47578 97.3385 2.31635 97.4928 2.20318C97.6472 2.09001 97.8336 2.02899 98.025 2.02899C98.2164 2.02899 98.4028 2.09001 98.5571 2.20318C98.7115 2.31635 98.8257 2.47578 98.8833 2.65832L100.433 7.42498H105.433C105.632 7.41749 105.827 7.4751 105.989 7.58902C106.152 7.70293 106.272 7.86689 106.333 8.05583C106.393 8.24478 106.39 8.44832 106.324 8.63536C106.258 8.82241 106.132 8.98266 105.967 9.09165L101.908 12.0333L103.458 16.8083C103.52 16.9902 103.521 17.1869 103.463 17.3698C103.404 17.5526 103.289 17.7119 103.133 17.8246C102.978 17.9372 102.791 17.9972 102.599 17.9957C102.407 17.9943 102.22 17.9316 102.067 17.8167L98 14.8417L93.9416 17.7917C93.7879 17.9066 93.6014 17.9693 93.4095 17.9707C93.2176 17.9722 93.0302 17.9122 92.8748 17.7996C92.7194 17.6869 92.604 17.5276 92.5456 17.3448C92.4871 17.1619 92.4887 16.9652 92.55 16.7833L94.1 12.0083L90.0416 9.06665C89.8759 8.95766 89.7504 8.79741 89.6842 8.61036C89.6181 8.42332 89.6151 8.21978 89.6755 8.03083C89.736 7.84189 89.8567 7.67793 90.0191 7.56402C90.1815 7.4501 90.3767 7.39249 90.575 7.39998H95.575L97.1666 2.65832Z" stroke="#90A3BF" stroke-width="1.5" stroke-linecap="round" stroke-linejoin="round"/>
    </g>
    <defs>
        <clipPath id="clip0_44_16312">
            <rect width="108" height="20" fill="white"/>
        </clipPath>
    </defs>
</svg>
